<mxfile host="app.diagrams.net" modified="2024-06-07T12:44:09.618Z" agent="Mozilla/5.0 (Windows NT 10.0; Win64; x64; rv:126.0) Gecko/20100101 Firefox/126.0" etag="0wzH5eP4hjfVRO0bFKzx" version="24.5.2" type="github">
  <diagram name="Page-1" id="FVFjgDLScLv5-j35ywzJ">
    <mxGraphModel dx="2514" dy="911" grid="1" gridSize="10" guides="1" tooltips="1" connect="1" arrows="1" fold="1" page="1" pageScale="1" pageWidth="827" pageHeight="1169" math="0" shadow="0">
      <root>
        <mxCell id="0" />
        <mxCell id="1" parent="0" />
        <mxCell id="FTTnuHtuCUVX4FZ0POGu-1" value="Utiisateur de la solution" style="rounded=0;whiteSpace=wrap;html=1;" vertex="1" parent="1">
          <mxGeometry x="300" y="40" width="200" height="60" as="geometry" />
        </mxCell>
        <mxCell id="FTTnuHtuCUVX4FZ0POGu-3" value="&lt;h3 data-id=&quot;_v-IVyNhL2wGLC&quot; data-type=&quot;header-three&quot;&gt;Création d&#39;un point de mesure&lt;/h3&gt;&lt;h3 data-id=&quot;dkGF0zIWeJINRV&quot; data-type=&quot;header-three&quot;&gt;&lt;/h3&gt;" style="ellipse;whiteSpace=wrap;html=1;" vertex="1" parent="1">
          <mxGeometry x="-510" y="200" width="405" height="80" as="geometry" />
        </mxCell>
        <mxCell id="FTTnuHtuCUVX4FZ0POGu-5" value="&lt;h3 data-id=&quot;o6wlCiCVTH9qHD&quot; data-type=&quot;header-three&quot;&gt;Validation finale et confirmation du point de mesure&lt;/h3&gt;&lt;h3 data-id=&quot;dkGF0zIWeJINRV&quot; data-type=&quot;header-three&quot;&gt;&lt;/h3&gt;" style="ellipse;whiteSpace=wrap;html=1;" vertex="1" parent="1">
          <mxGeometry x="1038" y="200" width="405" height="80" as="geometry" />
        </mxCell>
        <mxCell id="FTTnuHtuCUVX4FZ0POGu-6" value="&lt;h3 data-id=&quot;dkGF0zIWeJINRV&quot; data-type=&quot;header-three&quot;&gt;Modification d&#39;un point de mesure en cours de création&lt;/h3&gt;" style="ellipse;whiteSpace=wrap;html=1;" vertex="1" parent="1">
          <mxGeometry x="197.5" y="200" width="405" height="80" as="geometry" />
        </mxCell>
        <mxCell id="FTTnuHtuCUVX4FZ0POGu-7" value="" style="endArrow=none;html=1;rounded=0;exitX=0.5;exitY=1;exitDx=0;exitDy=0;entryX=0.5;entryY=0;entryDx=0;entryDy=0;" edge="1" parent="1" source="FTTnuHtuCUVX4FZ0POGu-1" target="FTTnuHtuCUVX4FZ0POGu-3">
          <mxGeometry width="50" height="50" relative="1" as="geometry">
            <mxPoint x="390" y="430" as="sourcePoint" />
            <mxPoint x="440" y="380" as="targetPoint" />
          </mxGeometry>
        </mxCell>
        <mxCell id="FTTnuHtuCUVX4FZ0POGu-8" value="" style="endArrow=none;html=1;rounded=0;entryX=0.5;entryY=0;entryDx=0;entryDy=0;exitX=0.5;exitY=1;exitDx=0;exitDy=0;" edge="1" parent="1" source="FTTnuHtuCUVX4FZ0POGu-1" target="FTTnuHtuCUVX4FZ0POGu-5">
          <mxGeometry width="50" height="50" relative="1" as="geometry">
            <mxPoint x="210" y="180" as="sourcePoint" />
            <mxPoint x="350" y="190" as="targetPoint" />
          </mxGeometry>
        </mxCell>
        <mxCell id="FTTnuHtuCUVX4FZ0POGu-9" value="" style="endArrow=none;html=1;rounded=0;entryX=0.5;entryY=0;entryDx=0;entryDy=0;exitX=0.5;exitY=1;exitDx=0;exitDy=0;" edge="1" parent="1" source="FTTnuHtuCUVX4FZ0POGu-1" target="FTTnuHtuCUVX4FZ0POGu-6">
          <mxGeometry width="50" height="50" relative="1" as="geometry">
            <mxPoint x="210" y="180" as="sourcePoint" />
            <mxPoint x="350" y="300" as="targetPoint" />
          </mxGeometry>
        </mxCell>
        <mxCell id="FTTnuHtuCUVX4FZ0POGu-10" value="&lt;ol data-id=&quot;l8p7feLmRexO3l&quot;&gt;&lt;li data-id=&quot;DiwrZ91QP4pwvD&quot;&gt;&lt;b data-type=&quot;bold&quot;&gt;L&#39;utilisateur accède à la page de création de point de mesure.&lt;/b&gt;&lt;/li&gt;&lt;li data-id=&quot;PTzgRY2SVdITAV&quot;&gt;L&#39;utilisateur saisit les informations de base pour le point de mesure (nom, description, etc.).&lt;/li&gt;&lt;li data-id=&quot;Rg6jpb6nLNIq4a&quot;&gt;&lt;b data-type=&quot;bold&quot;&gt;L&#39;utilisateur choisit de créer un point de mesure sans équipement.&lt;/b&gt;&lt;/li&gt;&lt;/ol&gt;&lt;ul data-id=&quot;lKaW_IncHDbiU6&quot;&gt;&lt;ul data-id=&quot;lKaW_IncHDbiU6&quot;&gt;&lt;li data-id=&quot;o1YK0LnAwJL5_h&quot;&gt;Le système enregistre le point de mesure sans équipement associé.&lt;/li&gt;&lt;/ul&gt;&lt;/ul&gt;&lt;ol data-id=&quot;695cf2b9-d318-43ed-a40d-f7e287bca39d&quot;&gt;&lt;li data-id=&quot;xPuxy0GuMPX6uv&quot;&gt;&lt;b data-type=&quot;bold&quot;&gt;L&#39;utilisateur choisit de créer un point de mesure avec un équipement de type manuel.&lt;/b&gt;&lt;/li&gt;&lt;/ol&gt;&lt;ul data-id=&quot;MaHm1pvObaRw-Q&quot;&gt;&lt;ul data-id=&quot;MaHm1pvObaRw-Q&quot;&gt;&lt;li data-id=&quot;eQSLeyTos10_yF&quot;&gt;L&#39;utilisateur sélectionne les options spécifiques pour un équipement manuel.&lt;/li&gt;&lt;li data-id=&quot;-Lw6SXwfICu6tH&quot;&gt;Le système enregistre le point de mesure avec l&#39;équipement manuel associé.&lt;/li&gt;&lt;/ul&gt;&lt;/ul&gt;&lt;ol data-id=&quot;b36a7376-ca33-4506-932d-1dea4197dace&quot;&gt;&lt;li data-id=&quot;a_6e3lFNRQ6hLe&quot;&gt;&lt;b data-type=&quot;bold&quot;&gt;L&#39;utilisateur choisit de créer un point de mesure avec un équipement de type virtuel.&lt;/b&gt;&lt;/li&gt;&lt;/ol&gt;&lt;ul data-id=&quot;3mQ5phq1aDGUxT&quot;&gt;&lt;ul data-id=&quot;3mQ5phq1aDGUxT&quot;&gt;&lt;li data-id=&quot;t_MX7eaZLPgcjJ&quot;&gt;L&#39;utilisateur sélectionne les options spécifiques pour un équipement virtuel et configure la règle de calcul.&lt;/li&gt;&lt;li data-id=&quot;HG6LIYCUvuE4-2&quot;&gt;Le système enregistre le point de mesure avec l&#39;équipement virtuel associé.&lt;/li&gt;&lt;/ul&gt;&lt;/ul&gt;&lt;ol data-id=&quot;af3f266f-8b7d-46e6-b929-f921ed3d52ea&quot;&gt;&lt;li data-id=&quot;YkcdXzicxkHH_y&quot;&gt;Le système confirme la création du point de mesure et redirige l&#39;utilisateur vers la page de paramétrage détaillée.&lt;/li&gt;&lt;/ol&gt;" style="strokeWidth=1;html=1;shadow=0;dashed=0;shape=mxgraph.ios.iTextInput;strokeColor=#444444;buttonText=;fontSize=8;whiteSpace=wrap;align=left;" vertex="1" parent="1">
          <mxGeometry x="-472.5" y="310" width="330" height="300" as="geometry" />
        </mxCell>
        <mxCell id="FTTnuHtuCUVX4FZ0POGu-11" value="&lt;ol data-id=&quot;CyvELgpi3Bkmdr&quot;&gt;&lt;li data-id=&quot;h4tBovUmYlRi7y&quot;&gt;&lt;b data-type=&quot;bold&quot;&gt;L&#39;utilisateur accède à la page de modification pour le point de mesure en cours de création.&lt;/b&gt;&lt;/li&gt;&lt;li data-id=&quot;Or6nLuNpJWX5EL&quot;&gt;L&#39;utilisateur modifie les informations de base du point de mesure (nom, description, etc.).&lt;/li&gt;&lt;li data-id=&quot;tAwYPhZC8_T4UQ&quot;&gt;&lt;b data-type=&quot;bold&quot;&gt;Modification des équipements associés :&lt;/b&gt;&lt;/li&gt;&lt;/ol&gt;&lt;ul data-id=&quot;gRhGuQxex-hK_y&quot;&gt;&lt;ul data-id=&quot;gRhGuQxex-hK_y&quot;&gt;&lt;li data-id=&quot;fxtckRKt368Olz&quot;&gt;L&#39;utilisateur ajoute, modifie ou retire un équipement manuel ou virtuel.&lt;/li&gt;&lt;li data-id=&quot;1X9nRlFH0xoAs2&quot;&gt;Lors de la modification d&#39;un équipement, tous les paramètres précédents de cet équipement sont réinitialisés.&lt;/li&gt;&lt;li data-id=&quot;CQQvl6YcM6Xesn&quot;&gt;L&#39;utilisateur reconfigure l&#39;équipement à partir de zéro.&lt;/li&gt;&lt;li data-id=&quot;8upaIrlv0sfSjS&quot;&gt;Le système met à jour les informations de l&#39;équipement associé.&lt;/li&gt;&lt;/ul&gt;&lt;/ul&gt;&lt;ol data-id=&quot;4bbe17bc-6687-45d9-a200-903a2f28a7d8&quot;&gt;&lt;li data-id=&quot;BuJlWuhGVUEu2G&quot;&gt;&lt;b data-type=&quot;bold&quot;&gt;Validation des modifications :&lt;/b&gt;&lt;/li&gt;&lt;/ol&gt;&lt;ul data-id=&quot;_V32Q003p8H6Yv&quot;&gt;&lt;ul data-id=&quot;_V32Q003p8H6Yv&quot;&gt;&lt;li data-id=&quot;TYt3ZSebGfHzz6&quot;&gt;L&#39;utilisateur confirme les modifications.&lt;/li&gt;&lt;li data-id=&quot;ACn4gy1TW-lcjG&quot;&gt;Le système sauvegarde temporairement les modifications apportées.&lt;/li&gt;&lt;/ul&gt;&lt;/ul&gt;&lt;ol data-id=&quot;e293a30b-7eb0-402a-b47d-6cb9d61278e8&quot;&gt;&lt;li data-id=&quot;X9-Lnv6P6Wl60Q&quot;&gt;L&#39;utilisateur valide la création.&lt;/li&gt;&lt;/ol&gt;" style="strokeWidth=1;html=1;shadow=0;dashed=0;shape=mxgraph.ios.iTextInput;strokeColor=#444444;buttonText=;fontSize=8;whiteSpace=wrap;align=left;" vertex="1" parent="1">
          <mxGeometry x="249" y="310" width="330" height="300" as="geometry" />
        </mxCell>
        <mxCell id="FTTnuHtuCUVX4FZ0POGu-12" value="&lt;ol data-id=&quot;_fbNKUVPe3UzX9&quot;&gt;&lt;li data-id=&quot;SCQt2uuh7vQvoQ&quot;&gt;&lt;b data-type=&quot;bold&quot;&gt;L&#39;utilisateur accède à la page de validation finale, vue caractéristique du PDM.&lt;/b&gt;&lt;/li&gt;&lt;li data-id=&quot;GsVP1tB33as2ew&quot;&gt;L&#39;utilisateur vérifie toutes les informations et les équipements associés au point de mesure.&lt;/li&gt;&lt;li data-id=&quot;H6roKFgm9piM_s&quot;&gt;&lt;b data-type=&quot;bold&quot;&gt;L&#39;utilisateur confirme la création :&lt;/b&gt;&lt;/li&gt;&lt;/ol&gt;&lt;ul data-id=&quot;YNpI1mD_Duqp4s&quot;&gt;&lt;ul data-id=&quot;YNpI1mD_Duqp4s&quot;&gt;&lt;li data-id=&quot;mD-q91-p2yMWjC&quot;&gt;Le système enregistre définitivement le point de mesure dès que la disquette enregistrer est déclenchée (clic).&lt;/li&gt;&lt;li data-id=&quot;_zQjui2tgXwyLu&quot;&gt;Le système affiche un message de confirmation de la création réussie.&lt;/li&gt;&lt;/ul&gt;&lt;/ul&gt;&lt;ol data-id=&quot;5a70ed4e-b94b-45d1-a170-b70370f40eb7&quot;&gt;&lt;li data-id=&quot;pEFm7klAgRGXDM&quot;&gt;L&#39;utilisateur est redirigé vers la page principale : &#39;Gérer points de mesure&#39; ou une page de résumé ?&lt;/li&gt;&lt;/ol&gt;" style="strokeWidth=1;html=1;shadow=0;dashed=0;shape=mxgraph.ios.iTextInput;strokeColor=#444444;buttonText=;fontSize=8;whiteSpace=wrap;align=left;" vertex="1" parent="1">
          <mxGeometry x="1076" y="310" width="330" height="300" as="geometry" />
        </mxCell>
      </root>
    </mxGraphModel>
  </diagram>
</mxfile>
